<svg xmlns="http://www.w3.org/2000/svg" width="461.201171875" height="463.2476501464844" viewBox="-120.17628479003906 -139.07376098632812 461.201171875 463.2476501464844"><title>Neo4j Graph Visualization</title><desc>Created using Neo4j (http://www.neo4j.com/)</desc><g class="layer relationships"><g class="relationship" transform="translate(87.85163308527025 114.33617169545806) rotate(417.8983641796851)"><path class="outline" fill="#A5ABB6" stroke="none" d="M 25 0.5 L 25.996235500627222 0.5 L 25.996235500627222 -0.5 L 25 -0.5 Z M 83.12514175062722 0.5 L 84.12137725125444 0.5 L 84.12137725125444 3.5 L 91.12137725125444 0 L 84.12137725125444 -3.5 L 84.12137725125444 -0.5 L 83.12514175062722 -0.5 Z"/><text text-anchor="middle" pointer-events="none" font-size="8px" fill="#000000" x="54.56068862562722" y="3" font-family="sans-serif">BELONGS_…</text></g><g class="relationship" transform="translate(149.56117646136062 212.7033741109104) rotate(408.47299315836045)"><path class="outline" fill="#A5ABB6" stroke="none" d="M 25 0.5 L 29.462820107293254 0.5 L 29.462820107293254 -0.5 L 25 -0.5 Z M 73.69719510729325 0.5 L 78.16001521458651 0.5 L 78.16001521458651 3.5 L 85.16001521458651 0 L 78.16001521458651 -3.5 L 78.16001521458651 -0.5 L 73.69719510729325 -0.5 Z"/><text text-anchor="middle" pointer-events="none" font-size="8px" fill="#000000" x="51.580007607293254" y="3" font-family="sans-serif">MADE_BY</text></g><g class="relationship" transform="translate(87.85163308527025 114.33617169545806) rotate(347.8654317299166)"><path class="outline" fill="#A5ABB6" stroke="none" d="M 25 0.5 L 25.128907592425094 0.5 L 25.128907592425094 -0.5 L 25 -0.5 Z M 85.2265638424251 0.5 L 85.35547143485019 0.5 L 85.35547143485019 3.5 L 92.35547143485019 0 L 85.35547143485019 -3.5 L 85.35547143485019 -0.5 L 85.2265638424251 -0.5 Z"/><text text-anchor="middle" pointer-events="none" font-size="8px" fill="#000000" x="55.177735717425094" y="3" font-family="sans-serif">BELONGS_TO</text></g><g class="relationship" transform="translate(202.5849830605103 89.66705985179773) rotate(352.2615882301959)"><path class="outline" fill="#A5ABB6" stroke="none" d="M 25 0.5 L 29.60567673234594 0.5 L 29.60567673234594 -0.5 L 25 -0.5 Z M 73.84005173234594 0.5 L 78.44572846469188 0.5 L 78.44572846469188 3.5 L 85.44572846469188 0 L 78.44572846469188 -3.5 L 78.44572846469188 -0.5 L 73.84005173234594 -0.5 Z"/><text text-anchor="middle" pointer-events="none" font-size="8px" fill="#000000" x="51.72286423234594" y="3" font-family="sans-serif">MADE_BY</text></g><g class="relationship" transform="translate(87.85163308527025 114.33617169545806) rotate(282.5820239164168)"><path class="outline" fill="#A5ABB6" stroke="none" d="M 25 0.5 L 25.200864152605178 0.5 L 25.200864152605178 -0.5 L 25 -0.5 Z M 85.29852040260518 0.5 L 85.49938455521036 0.5 L 85.49938455521036 3.5 L 92.49938455521036 0 L 85.49938455521036 -3.5 L 85.49938455521036 -0.5 L 85.29852040260518 -0.5 Z"/><text text-anchor="middle" pointer-events="none" font-size="8px" fill="#000000" x="55.24969227760518" y="3" font-family="sans-serif">BELONGS_TO</text></g><g class="relationship" transform="translate(113.44735177550167 -0.3414833014232829) rotate(277.34459358464386)"><path class="outline" fill="#A5ABB6" stroke="none" d="M 25 0.5 L 29.70283534976072 0.5 L 29.70283534976072 -0.5 L 25 -0.5 Z M 73.93721034976072 0.5 L 78.64004569952144 0.5 L 78.64004569952144 3.5 L 85.64004569952144 0 L 78.64004569952144 -3.5 L 78.64004569952144 -0.5 L 73.93721034976072 -0.5 Z"/><text text-anchor="middle" pointer-events="none" font-size="8px" fill="#000000" x="51.82002284976072" y="3" font-family="sans-serif">MADE_BY</text></g><g class="relationship" transform="translate(87.85163308527025 114.33617169545806) rotate(213.14396692575042)"><path class="outline" fill="#A5ABB6" stroke="none" d="M 25 0.5 L 26.118192819117112 0.5 L 26.118192819117112 -0.5 L 25 -0.5 Z M 83.24709906911711 0.5 L 84.36529188823422 0.5 L 84.36529188823422 3.5 L 91.36529188823422 0 L 84.36529188823422 -3.5 L 84.36529188823422 -0.5 L 83.24709906911711 -0.5 Z"/><text text-anchor="middle" pointer-events="none" font-size="8px" fill="#000000" x="54.68264594411711" y="3" transform="rotate(180 54.68264594411711 0)" font-family="sans-serif">BELONGS_…</text></g><g class="relationship" transform="translate(-9.580957047245752 50.71407226213933) rotate(222.43910071334938)"><path class="outline" fill="#A5ABB6" stroke="none" d="M 25 0.5 L 29.664575002256967 0.5 L 29.664575002256967 -0.5 L 25 -0.5 Z M 73.89895000225697 0.5 L 78.56352500451393 0.5 L 78.56352500451393 3.5 L 85.56352500451393 0 L 78.56352500451393 -3.5 L 78.56352500451393 -0.5 L 73.89895000225697 -0.5 Z"/><text text-anchor="middle" pointer-events="none" font-size="8px" fill="#000000" x="51.78176250225697" y="3" transform="rotate(180 51.78176250225697 0)" font-family="sans-serif">MADE_BY</text></g><g class="relationship" transform="translate(87.85163308527025 114.33617169545806) rotate(494.4469214728926)"><path class="outline" fill="#A5ABB6" stroke="none" d="M 25 0.5 L 25.77993529449708 0.5 L 25.77993529449708 -0.5 L 25 -0.5 Z M 82.90884154449708 0.5 L 83.68877683899416 0.5 L 83.68877683899416 3.5 L 90.68877683899416 0 L 83.68877683899416 -3.5 L 83.68877683899416 -0.5 L 82.90884154449708 -0.5 Z"/><text text-anchor="middle" pointer-events="none" font-size="8px" fill="#000000" x="54.34438841949708" y="3" transform="rotate(180 54.34438841949708 0)" font-family="sans-serif">BELONGS_…</text></g><g class="relationship" transform="translate(6.840773962383853 196.92632722669825) rotate(500.1493559636224)"><path class="outline" fill="#A5ABB6" stroke="none" d="M 25 0.5 L 28.330372991492446 0.5 L 28.330372991492446 -0.5 L 25 -0.5 Z M 72.56474799149245 0.5 L 75.89512098298489 0.5 L 75.89512098298489 3.5 L 82.89512098298489 0 L 75.89512098298489 -3.5 L 75.89512098298489 -0.5 L 72.56474799149245 -0.5 Z"/><text text-anchor="middle" pointer-events="none" font-size="8px" fill="#000000" x="50.447560491492446" y="3" transform="rotate(180 50.447560491492446 0)" font-family="sans-serif">MADE_BY</text></g></g><g class="layer nodes"><g class="node" transform="translate(87.85163308527025,114.33617169545806)"><circle class="outline" cx="0" cy="0" r="25" fill="#57C7E3" stroke="#23b3d7" stroke-width="2px"/><text text-anchor="middle" pointer-events="none" font-family="sans-serif" dy="1.5625" font-size="25" fill="#2A2C34"/><text text-anchor="middle" pointer-events="none" font-family="sans-serif" dy="1.5625" font-size="25" fill="#2A2C34"/><text text-anchor="middle" pointer-events="none" x="0" y="0" font-size="10px" fill="#2A2C34" font-family="sans-serif"> Chevrolet</text><text text-anchor="middle" pointer-events="none" x="0" y="10" font-size="10px" fill="#2A2C34" font-family="sans-serif"> Express</text></g><g class="node" transform="translate(222.59429234866428,295.1739321050795)"><circle class="outline" cx="0" cy="0" r="25" fill="#F79767" stroke="#f36924" stroke-width="2px"/><text text-anchor="middle" pointer-events="none" font-family="sans-serif" dy="1.5625" font-size="25" fill="#FFFFFF"/><text text-anchor="middle" pointer-events="none" font-family="sans-serif" dy="1.5625" font-size="25" fill="#FFFFFF"/><text text-anchor="middle" pointer-events="none" font-family="sans-serif" dy="1.5625" font-size="25" fill="#FFFFFF"/><text text-anchor="middle" pointer-events="none" x="0" y="-5" font-size="10px" fill="#FFFFFF" font-family="sans-serif"> Peter</text><text text-anchor="middle" pointer-events="none" x="0" y="5" font-size="10px" fill="#FFFFFF" font-family="sans-serif"> James</text><text text-anchor="middle" pointer-events="none" x="0" y="15" font-size="10px" fill="#FFFFFF" font-family="sans-serif"> MD</text></g><g class="node" transform="translate(312.02489896384935,74.79548484554746)"><circle class="outline" cx="0" cy="0" r="25" fill="#F79767" stroke="#f36924" stroke-width="2px"/><text text-anchor="middle" pointer-events="none" font-family="sans-serif" dy="1.5625" font-size="25" fill="#FFFFFF"/><text text-anchor="middle" pointer-events="none" font-family="sans-serif" dy="1.5625" font-size="25" fill="#FFFFFF"/><text text-anchor="middle" pointer-events="none" x="0" y="0" font-size="10px" fill="#FFFFFF" font-family="sans-serif"> Cheryl</text><text text-anchor="middle" pointer-events="none" x="0" y="10" font-size="10px" fill="#FFFFFF" font-family="sans-serif"> Jones</text></g><g class="node" transform="translate(127.59119531528458,-110.0737547730115)"><circle class="outline" cx="0" cy="0" r="25" fill="#F79767" stroke="#f36924" stroke-width="2px"/><text text-anchor="middle" pointer-events="none" font-family="sans-serif" dy="1.5625" font-size="25" fill="#FFFFFF"/><text text-anchor="middle" pointer-events="none" font-family="sans-serif" dy="1.5625" font-size="25" fill="#FFFFFF"/><text text-anchor="middle" pointer-events="none" x="0" y="0" font-size="10px" fill="#FFFFFF" font-family="sans-serif"> Randall</text><text text-anchor="middle" pointer-events="none" x="0" y="10" font-size="10px" fill="#FFFFFF" font-family="sans-serif"> West</text></g><g class="node" transform="translate(-91.17628572213441,-23.89487760220785)"><circle class="outline" cx="0" cy="0" r="25" fill="#F79767" stroke="#f36924" stroke-width="2px"/><text text-anchor="middle" pointer-events="none" font-family="sans-serif" dy="1.5625" font-size="25" fill="#FFFFFF"/><text text-anchor="middle" pointer-events="none" font-family="sans-serif" dy="1.5625" font-size="25" fill="#FFFFFF"/><text text-anchor="middle" pointer-events="none" x="0" y="0" font-size="10px" fill="#FFFFFF" font-family="sans-serif"> Lori Leon</text><text text-anchor="middle" pointer-events="none" x="0" y="10" font-size="10px" fill="#FFFFFF" font-family="sans-serif"> MD</text></g><g class="node" transform="translate(-75.9921907327695,266.06428418049046)"><circle class="outline" cx="0" cy="0" r="25" fill="#F79767" stroke="#f36924" stroke-width="2px"/><text text-anchor="middle" pointer-events="none" font-family="sans-serif" dy="1.5625" font-size="25" fill="#FFFFFF"/><text text-anchor="middle" pointer-events="none" x="0" y="5" font-size="10px" fill="#FFFFFF" font-family="sans-serif"> Christop…</text></g><g class="node" transform="translate(149.56117646136062,212.7033741109104)"><circle class="outline" cx="0" cy="0" r="25" fill="#F16667" stroke="#eb2728" stroke-width="2px"/><text text-anchor="middle" pointer-events="none" font-family="sans-serif" dy="1.5625" font-size="25" fill="#FFFFFF"/><text text-anchor="middle" pointer-events="none" x="0" y="5" font-size="10px" fill="#FFFFFF" font-family="sans-serif"> 3452</text></g><g class="node" transform="translate(202.5849830605103,89.66705985179773)"><circle class="outline" cx="0" cy="0" r="25" fill="#F16667" stroke="#eb2728" stroke-width="2px"/><text text-anchor="middle" pointer-events="none" font-family="sans-serif" dy="1.5625" font-size="25" fill="#FFFFFF"/><text text-anchor="middle" pointer-events="none" x="0" y="5" font-size="10px" fill="#FFFFFF" font-family="sans-serif"> 3485</text></g><g class="node" transform="translate(113.44735177550167,-0.3414833014232829)"><circle class="outline" cx="0" cy="0" r="25" fill="#F16667" stroke="#eb2728" stroke-width="2px"/><text text-anchor="middle" pointer-events="none" font-family="sans-serif" dy="1.5625" font-size="25" fill="#FFFFFF"/><text text-anchor="middle" pointer-events="none" x="0" y="5" font-size="10px" fill="#FFFFFF" font-family="sans-serif"> 3524</text></g><g class="node" transform="translate(-9.580957047245752,50.71407226213933)"><circle class="outline" cx="0" cy="0" r="25" fill="#F16667" stroke="#eb2728" stroke-width="2px"/><text text-anchor="middle" pointer-events="none" font-family="sans-serif" dy="1.5625" font-size="25" fill="#FFFFFF"/><text text-anchor="middle" pointer-events="none" x="0" y="5" font-size="10px" fill="#FFFFFF" font-family="sans-serif"> 3469</text></g><g class="node" transform="translate(6.840773962383853,196.92632722669825)"><circle class="outline" cx="0" cy="0" r="25" fill="#F16667" stroke="#eb2728" stroke-width="2px"/><text text-anchor="middle" pointer-events="none" font-family="sans-serif" dy="1.5625" font-size="25" fill="#FFFFFF"/><text text-anchor="middle" pointer-events="none" x="0" y="5" font-size="10px" fill="#FFFFFF" font-family="sans-serif"> 3436</text></g></g></svg>